<svg width="4250" height="446" viewBox="0 0 4250 446" fill="none" xmlns="http://www.w3.org/2000/svg">
<path d="M171.142 236.424C168.855 244.96 173.919 253.733 182.454 256.02V256.02C189.08 257.795 193.011 264.605 191.236 271.23L172.609 340.746C170.322 349.281 161.549 354.346 153.013 352.059L55.4549 325.919C46.9194 323.632 41.8541 314.858 44.1412 306.323L70.1697 209.183C72.4568 200.648 81.2302 195.582 89.7656 197.869L159.874 216.655C168.41 218.942 173.475 227.715 171.188 236.251L171.142 236.424ZM335.908 384.501C333.621 393.037 324.848 398.102 316.312 395.815L219.183 369.789C210.648 367.502 205.582 358.729 207.869 350.194L226.303 281.397C228.185 274.375 235.403 270.208 242.425 272.089V272.089C250.96 274.376 259.734 269.311 262.021 260.775L262.067 260.602C264.354 252.066 273.128 247.001 281.663 249.288L350.623 267.766C359.159 270.053 364.224 278.826 361.937 287.362L335.908 384.501ZM222.015 156.36C220.24 162.985 213.431 166.916 206.806 165.141V165.141C198.271 162.854 189.498 167.919 187.21 176.455V176.455C185.867 181.47 180.711 184.447 175.696 183.103L99.2135 162.609C90.6781 160.322 85.6127 151.549 87.8998 143.013L114.041 45.4548C116.328 36.9194 125.101 31.854 133.636 34.1411L231.195 60.2818C239.73 62.5689 244.796 71.3423 242.509 79.8777L222.015 156.36ZM379.667 221.192C377.38 229.728 368.606 234.793 360.071 232.506L284.737 212.32C279.722 210.976 276.746 205.821 278.09 200.806V200.806C280.377 192.271 275.311 183.497 266.776 181.21V181.21C259.754 179.328 255.587 172.111 257.468 165.089L277.769 89.3257C280.056 80.7902 288.829 75.7249 297.365 78.0119L394.494 104.038C403.029 106.325 408.095 115.098 405.808 123.634L379.667 221.192Z" fill="url(#paint0_linear_15_2)"/>
<path d="M498.1 123.204H536.796V280.064H647.758V314H498.1V123.204ZM678.153 123.204H716.85V228.307C716.85 236.933 718.03 244.623 720.39 251.378C722.75 258.051 726.249 263.707 730.888 268.346C735.608 272.984 741.426 276.524 748.344 278.966C755.261 281.326 763.318 282.506 772.514 282.506C781.628 282.506 789.644 281.326 796.562 278.966C803.56 276.524 809.379 272.984 814.018 268.346C818.738 263.707 822.278 258.051 824.638 251.378C826.998 244.623 828.178 236.933 828.178 228.307V123.204H866.874V232.945C866.874 245.478 864.758 256.871 860.526 267.125C856.295 277.379 850.15 286.168 842.094 293.492C834.037 300.816 824.149 306.472 812.431 310.46C800.793 314.448 787.488 316.441 772.514 316.441C757.54 316.441 744.193 314.448 732.475 310.46C720.837 306.472 710.99 300.816 702.934 293.492C694.877 286.168 688.733 277.379 684.501 267.125C680.269 256.871 678.153 245.478 678.153 232.945V123.204ZM971.61 157.14H901.176V123.204H1080.74V157.14H1010.31V314H971.61V157.14ZM1117.24 123.204H1156.18V314H1117.24V123.204ZM1194.39 218.053C1194.39 203.648 1197.03 190.465 1202.32 178.502C1207.61 166.539 1215.02 156.285 1224.54 147.74C1234.14 139.114 1245.62 132.441 1258.96 127.721C1272.39 123.001 1287.24 120.641 1303.52 120.641C1319.71 120.641 1334.53 123.001 1347.95 127.721C1361.38 132.441 1372.86 139.114 1382.38 147.74C1391.98 156.285 1399.43 166.539 1404.72 178.502C1410.01 190.465 1412.65 203.648 1412.65 218.053C1412.65 232.538 1410.01 245.844 1404.72 257.97C1399.43 270.014 1391.98 280.39 1382.38 289.098C1372.86 297.805 1361.38 304.601 1347.95 309.483C1334.53 314.285 1319.71 316.686 1303.52 316.686C1287.24 316.686 1272.39 314.285 1258.96 309.483C1245.62 304.601 1234.14 297.805 1224.54 289.098C1215.02 280.39 1207.61 270.014 1202.32 257.97C1197.03 245.844 1194.39 232.538 1194.39 218.053ZM1233.08 218.053C1233.08 227.9 1234.83 236.77 1238.33 244.664C1241.91 252.558 1246.84 259.312 1253.1 264.928C1259.45 270.462 1266.9 274.734 1275.44 277.745C1284.07 280.756 1293.43 282.262 1303.52 282.262C1313.61 282.262 1322.93 280.756 1331.47 277.745C1340.1 274.734 1347.55 270.462 1353.81 264.928C1360.08 259.312 1365 252.558 1368.58 244.664C1372.16 236.77 1373.95 227.9 1373.95 218.053C1373.95 208.206 1372.16 199.376 1368.58 191.563C1365 183.751 1360.08 177.159 1353.81 171.788C1347.55 166.336 1340.1 162.185 1331.47 159.337C1322.93 156.489 1313.61 155.064 1303.52 155.064C1293.43 155.064 1284.07 156.489 1275.44 159.337C1266.9 162.185 1259.45 166.336 1253.1 171.788C1246.84 177.159 1241.91 183.751 1238.33 191.563C1234.83 199.376 1233.08 208.206 1233.08 218.053ZM1455.38 123.204H1494.07L1612.97 185.46V123.204H1651.66V314H1612.97V226.476L1494.07 164.586V314H1455.38V123.204ZM1788.75 123.204H1827.45L1896.78 192.784L1966.12 123.204H2004.81V314H1966.12V176.793L1896.78 243.565L1827.45 176.793V314H1788.75V123.204ZM2124.2 123.204H2165.21L2257.5 314H2216.85L2201.59 281.896H2090.14L2075.37 314H2034.6L2124.2 123.204ZM2186.33 250.035L2145.07 163.365L2104.91 250.035H2186.33ZM2287.16 123.204H2384.21C2398.86 123.204 2411.55 124.75 2422.29 127.843C2433.04 130.854 2441.95 135.248 2449.03 141.026C2456.11 146.804 2461.36 153.844 2464.77 162.145C2468.27 170.445 2470.02 179.845 2470.02 190.343C2470.02 197.423 2469.17 204.177 2467.46 210.606C2465.75 216.954 2463.11 222.813 2459.53 228.185C2456.03 233.556 2451.59 238.357 2446.22 242.589C2440.85 246.739 2434.54 250.198 2427.3 252.965L2468.8 314H2421.44L2385.55 259.801H2384.45L2325.86 259.679V314H2287.16V123.204ZM2385.18 226.231C2392.51 226.231 2398.9 225.377 2404.35 223.668C2409.88 221.959 2414.48 219.558 2418.14 216.466C2421.89 213.373 2424.65 209.63 2426.44 205.235C2428.32 200.759 2429.25 195.795 2429.25 190.343C2429.25 179.682 2425.59 171.463 2418.27 165.685C2410.94 159.825 2399.91 156.896 2385.18 156.896H2325.86V226.231H2385.18ZM2515.92 123.204H2554.62V221.959L2655.33 123.204H2704.89L2610.89 214.269L2704.89 314H2653.37L2583.06 241.246L2554.62 268.712V314H2515.92V123.204ZM2723.93 123.204H2886.41V157.14H2762.63V195.226H2872.25V227.086H2762.63V280.187H2888.97V314H2723.93V123.204ZM2989.43 157.14H2919V123.204H3098.56V157.14H3028.13V314H2989.43V157.14ZM3139.95 123.204H3240.53C3255.18 123.204 3267.88 124.791 3278.62 127.965C3289.36 131.139 3298.27 135.737 3305.35 141.759C3312.43 147.7 3317.68 154.983 3321.1 163.609C3324.6 172.236 3326.35 181.961 3326.35 192.784C3326.35 202.957 3324.64 212.356 3321.22 220.982C3317.8 229.609 3312.55 237.096 3305.47 243.443C3298.47 249.71 3289.6 254.633 3278.86 258.214C3268.12 261.713 3255.42 263.463 3240.78 263.463L3178.64 263.341V314H3139.95V123.204ZM3241.51 229.894C3248.83 229.894 3255.22 229.039 3260.67 227.33C3266.21 225.54 3270.8 223.058 3274.47 219.884C3278.21 216.629 3280.98 212.722 3282.77 208.165C3284.64 203.526 3285.58 198.399 3285.58 192.784C3285.58 181.472 3281.87 172.683 3274.47 166.417C3267.14 160.069 3256.16 156.896 3241.51 156.896H3178.64V229.894H3241.51ZM3368.71 123.204H3407.4V280.064H3518.36V314H3368.71V123.204ZM3621.02 123.204H3662.04L3754.33 314H3713.68L3698.42 281.896H3586.97L3572.2 314H3531.42L3621.02 123.204ZM3683.16 250.035L3641.9 163.365L3601.74 250.035H3683.16ZM3772.39 217.442C3772.39 203.852 3774.96 191.197 3780.08 179.479C3785.21 167.678 3792.61 157.465 3802.3 148.839C3812.06 140.131 3823.95 133.295 3837.94 128.331C3852.02 123.367 3867.93 120.885 3885.67 120.885C3901.22 120.885 3915.46 122.472 3928.4 125.646C3941.42 128.738 3953.5 133.499 3964.65 139.928L3946.83 169.225C3943.49 167.027 3939.63 165.074 3935.23 163.365C3930.92 161.656 3926.28 160.232 3921.32 159.093C3916.43 157.872 3911.35 156.936 3906.06 156.285C3900.85 155.634 3895.68 155.309 3890.56 155.309C3878.19 155.309 3867.16 156.855 3857.47 159.947C3847.79 162.958 3839.61 167.231 3832.94 172.765C3826.35 178.217 3821.3 184.768 3817.8 192.418C3814.38 199.986 3812.67 208.328 3812.67 217.442C3812.67 226.882 3814.47 235.549 3818.05 243.443C3821.63 251.337 3826.79 258.173 3833.55 263.951C3840.38 269.648 3848.69 274.124 3858.45 277.379C3868.3 280.553 3879.41 282.14 3891.78 282.14C3897.39 282.14 3902.97 281.733 3908.5 280.919C3914.03 280.105 3919.36 279.007 3924.49 277.623C3929.7 276.158 3934.7 274.449 3939.51 272.496C3944.31 270.462 3948.78 268.264 3952.93 265.904L3970.76 295.201C3960.34 301.874 3948.29 307.123 3934.62 310.948C3920.95 314.692 3906.42 316.563 3891.04 316.563C3871.43 316.563 3854.22 314.041 3839.41 308.995C3824.6 303.868 3812.23 296.869 3802.3 287.999C3792.37 279.047 3784.88 268.549 3779.84 256.505C3774.87 244.379 3772.39 231.358 3772.39 217.442ZM4013.48 123.204H4175.96V157.14H4052.18V195.226H4161.8V227.086H4052.18V280.187H4178.52V314H4013.48V123.204Z" fill="white"/>
<defs>
<linearGradient id="paint0_linear_15_2" x1="362.721" y1="170.329" x2="79.8565" y2="247.548" gradientUnits="userSpaceOnUse">
<stop stop-color="#BF3131"/>
<stop offset="1" stop-color="#C94C36"/>
</linearGradient>
</defs>
</svg>
